<svg xmlns="http://www.w3.org/2000/svg" id="Livello_1" data-name="Livello 1" width="1920" height="669.3" viewBox="0 0 1920 669.3"><defs><style>      .cls-1 {        fill: #a0875e;        stroke-width: 0px;      }    </style></defs><path class="cls-1" d="m717.2,415.5c-3.7.9-8.6,1-14.6.2-14.2-1.8-31.5-4.6-52-8.6-14.9,13.3-40.5,39.2-76.9,77.7-50.8,53.9-97.6,79.8-140.6,77.9-22.5-1-33.8-11.5-33.8-31.7,0-13.1,5.1-26.8,15.3-41-6.6-4.5-9.7-12.7-9.6-24.5.1-21.1,10.6-39.1,31.4-53.9,25.6-18.4,62-26.8,109.4-25.2,28.6.9,63.1,5.8,103.7,14.4,7.2-5.7,14.8-9.7,22.8-11.9.9-.3,1.9-.5,2.7-.7.9-.1,1.6-.2,2-.2.6.1.9.5.7.9-.3.6-1.7,1.4-4.1,2.1-6.5,2-12.6,5.7-18.2,10.9,17.9,4.5,33.9,7.9,47.9,10.1,6.1.9,10.5,1.3,13.2.9h4.1c.9,1.4-.3,2.3-3.4,2.6m-73.5-9.6c-35.8-6.3-68-9.9-96.7-11-45.8-1.8-81.3,5.3-106.6,21.1-21.2,13.4-31.8,29.8-31.6,49.3.2,10.4,2.6,17.9,7.4,22.7,8.9-11.3,19.6-21.2,31.9-29.7,11.2-7.8,23.8-14.1,37.8-18.7,15.5-5.1,29.6-7.3,42.4-6.5,17.1,1.1,25.2,8.7,24.4,22.8-.2,2.4-.9,3.6-2,3.6-.8-.2-1.2-1.8-1-4.8.3-5.3-1.6-9.6-5.7-13.1-4.1-3.4-9.6-5.2-16.3-5.4-10.5-.3-23.3,2.9-38.3,9.6-12.1,5.4-23.9,12.2-35.4,20.3-32.2,23-49.1,43.9-50.7,62.8-1.6,19.2,8.7,29.1,30.9,29.7,30.2.8,72.9-25.2,128.1-78.1,28.3-27.2,42.7-41,43.4-41.5,14.9-13.8,27.6-24.9,38-33.1Z"></path><path class="cls-1" d="m636.2,479.1c0,4.8-4.2,10.2-12.5,16.1-3.2,2.2-7.5,4.4-13.1,6.3-5.5,1.9-9.9,2.9-13.3,2.9-1.7,0-3-.2-3.8-.7-16.8,15.8-25.2,27.4-25.2,34.7,0,2.8,1.8,4.3,5.3,4.3,5.3,0,12.2-2.7,20.9-8.1,9.4-5.9,19.6-14,30.4-24.2,1.6-1.4,2.7-1.8,3.4-1,.6.8.2,1.9-1.2,3.3-9.3,8.4-18.4,15.8-27.5,22.2-11.7,8.1-21.4,11.8-29.2,10.9-7.8-.8-11.4-5.1-10.8-12.9.9-9.7,7.2-20.1,18.7-31.1,8-7.6,17-14.4,27.2-20.1,10.1-5.7,18-8.6,23.6-8.6,4.7,0,7.1,2,7.1,6m-4.6-2.7c-1.4-1.1-6.5,1.4-15.1,7.7-8,5.9-15.2,12-21.5,18.2.5.2,1.1.3,1.9.3,6.5,0,14.6-3.8,24.2-11.3,7.3-5.9,11-10.4,11-13.4,0-.8-.2-1.2-.5-1.5Z"></path><path class="cls-1" d="m707,511c.8.8.3,2-1.4,3.6-11.5,9.8-20.4,17-26.8,21.5-11.2,7.8-19.6,11-25.4,9.7-3.8-.9-5.7-3.8-5.7-8.6,0-4,1.6-8.3,4.8-12.9,3.8-5.4,10.7-12.6,20.6-21.7,5-4.3,9.9-8.6,14.8-12.9,6.4-5.7,9.6-9.5,9.6-11.2,0-.5-.2-.8-.7-1-2.7-1.1-11.1,2.6-25,11.1-14,8.5-25,16.7-33.2,24.5-9.3,8.7-19.4,20.1-30.4,34-1.3,0-2.2-1.3-2.6-3.9-.3-2.4-.1-4.2.5-5.5,5.9-11.3,16.2-24.6,30.9-40,8.5-8.7,15.8-15.2,22-19.3,3.8-2.6,9.3-3.8,16.5-3.8-9.9,6.9-21,17.2-33.3,31.1,8.6-7,18.1-13.8,28.3-20.2,13.1-8,22.3-12.1,27.5-12.1s7.7,2.2,7.7,6.5c0,6.1-7.4,15.8-22.3,29.1-5.8,5.1-12.2,11.4-19.2,18.7-5.8,6.1-8.6,10.2-8.6,12.5,0,1.6.8,2.4,2.4,2.4,4.3,0,11-3.2,20.1-9.8,6.4-5.3,15.1-12.4,26.1-21.3,1.2-1.1,2.2-1.2,2.8-.5"></path><path class="cls-1" d="m792.4,474.4c-20.6,18.9-36.7,35.5-48.4,49.7-7,8.6-10.5,13.9-10.5,16,0,.8.4,1.4,1.2,1.7,3,1.4,10.4-2.5,22-11.7.3-.3,8.1-6.9,23.2-19.9,1.4-.9,2.5-1.1,3.1-.4.8.8.6,1.7-.7,2.7-5.6,5.4-13.3,12-23,19.7-12,9.4-20.3,14.1-24.9,13.9-5.8-.3-8.6-2.9-8.6-7.9,0-3.7,1.5-8,4.6-13.2-2.1,2.1-4.9,4.5-8.4,7.2-12,9.3-20.6,13.9-25.9,13.9s-8.1-2.3-8.1-6.9c0-8,6-18.3,18-30.9s24.1-22.4,36.4-29.5c4.1-2.4,9.1-3.3,14.9-2.9-22.8,18.7-39.8,34.8-50.8,48.4-6.9,8.5-10.3,13.8-10.3,15.8,0,.9.4,1.6,1.2,1.9,3.3,1.6,11-2.3,23-11.9,5.6-4.4,13.2-11.6,22.8-21.5,15.2-15.8,27.3-26.3,36.4-31.5,3.3-2.4,7.6-3.2,12.8-2.7"></path><path class="cls-1" d="m1037.6,429c-1.8,9.6-6.2,16.1-13.2,19.6-1.6.8-2.5.8-2.7,0-.2-.5.3-1.2,1.4-2.1,4.5-3.7,7.3-8.9,8.6-15.5.5-2.8.7-5.5.7-8.1,0-10.6-4-18.8-12-24.9-8.9-6.9-22.4-10.2-40.2-10.1-29.9.4-66.3,17.5-109.2,51.5-16,12.6-31.5,26.2-46.7,40.7h18.4c1.3,0,1.7.5,1.2,1.7-.3.8-1.2,1.2-2.7,1.2-8.1,0-15,.2-20.6.7-31,31-46.5,49.6-46.5,55.8,0,2.2,1.3,3.3,3.8,3.3,4.5,0,11.3-3.5,20.6-10.5,8.8-6.7,17.3-13.9,25.6-21.8,1.6-1.1,2.7-1.4,3.4-.7.5.6-.1,1.9-1.7,3.8-8.9,8.3-17.8,15.7-26.6,22.2-9.8,7.3-17.4,11-23,11-6.7,0-10.1-3.3-10.1-9.8s5.5-15.9,16.5-28.7c3.5-4.1,11.3-12.4,23.4-24.7-2.9,0-7.8.3-14.6,1-1,.2-1.6.1-1.8-.1-.3-.2-.3-.6-.1-1.1.1-.5.9-1,2.2-1.4,3.7-.6,9.6-1.1,17.7-1.4,18.8-18.8,37.7-35.1,56.5-48.8,43-31.2,81.1-47,114.5-47.3,19.5-.2,34.3,3.7,44.3,11.4,8.8,6.7,13.2,15.4,13.2,26.3.4,2.2.1,4.6-.3,6.8"></path><path class="cls-1" d="m885.5,479.1c0,4.8-4.2,10.2-12.5,16.1-3.2,2.2-7.5,4.4-13.1,6.3-5.5,1.9-9.9,2.9-13.3,2.9-1.8,0-3-.2-3.8-.7-16.8,15.8-25.1,27.4-25.1,34.7,0,2.8,1.8,4.3,5.3,4.3,5.3,0,12.2-2.7,20.8-8.1,9.4-5.9,19.6-14,30.4-24.2,1.6-1.4,2.7-1.8,3.3-1s.2,1.9-1.2,3.3c-9.3,8.4-18.4,15.8-27.5,22.2-11.7,8.1-21.4,11.8-29.2,10.9-7.8-.8-11.4-5.1-10.8-12.9,1-9.7,7.2-20.1,18.7-31.1,8-7.6,17-14.4,27.2-20.1,10.1-5.7,18-8.6,23.6-8.6,4.8,0,7.2,2,7.2,6m-4.6-2.7c-1.4-1.1-6.5,1.4-15.1,7.7-8,5.9-15.1,12-21.5,18.2.5.2,1.1.3,1.9.3,6.6,0,14.6-3.8,24.2-11.3,7.4-5.9,11-10.4,11-13.4,0-.8-.2-1.2-.5-1.5Z"></path><path class="cls-1" d="m1238.7,407.6c-.5,1-1.4,1.2-2.7.7-3.7-1.3-7.2-1.8-10.8-1.4-10.7,1.1-27,11.1-48.9,29.9-17.3,14.6-33.1,30.1-47.6,46.7-14.1,16-26,32-35.7,48.1-2.4,4.1-4.9,8.3-7.5,12.4-2.7,4.1-4.8,6-6.4,5.5-1.7-.5-2.6-1.9-2.6-4.3,0-2.7,1.1-6.4,3.3-11,3.4-7,9.7-17.1,19.2-30.2,3-6.2,4.5-12.1,4.5-17.5,0-5.1-1.4-9.8-4.1-14.1-2.5,2.4-6.3,6-11.2,10.8-54,53.8-100.8,80.8-140.6,80.8-24.4,0-36.6-10-36.6-29.7,0-12.9,5.4-26.2,16.3-39.8,9.1-11.5,20.1-21.2,33-29,17.9-11.1,39.4-17.9,64.6-20.6-4.9-3.5-7-8.6-6.2-15.4,1.6-14.7,11.9-26.4,30.9-35.2,16.9-7.8,36.5-11.7,58.7-11.7,20.6,0,40.4,1.8,59.6,5.3,9.9,1.8,24.7,5.3,44.5,10.6,3.8,1,11.6,3.4,23.2,7.2,2.1.6,3.1,1.3,3.1,1.9m-144.5,58.2c-12.9-12.4-32.4-18.2-58.4-17.2-9.8.3-21.4,2.8-35,7.4s-25.3,10.1-35.2,16.3c-33.7,21.2-50.5,42.1-50.5,62.5,0,17.6,10.4,26.4,31.4,26.4,16.8,0,35.8-6.8,57-20.4,18.5-11.8,42.4-31.3,71.6-58.4,6.5-6.2,12.9-11.6,19.1-16.6Zm127.9-62.2c-2-.5-5-1.1-9.1-1.9-19.5-3.7-33.6-6-42.4-7.2-18.1-2.2-38.9-3.3-62.5-3.3-21.4,0-40.5,3.5-57.2,10.5-18.1,7.7-27.7,17.4-29,29.3-.6,6.2,1.7,10.8,7,13.6,2.8-.3,5.1-.5,6.7-.5,27.6-.5,48,6.1,61.1,19.6,28.6-23.3,56.4-40,83.6-50,16.6-6.2,30.5-9.5,41.8-10.1Zm-5.7,3.1c-8.3.6-18.9,3.6-31.8,8.8-26.7,10.7-54.2,29-82.7,54.9,3.4,5.3,5,10.8,5,16.5,0,2.9-.4,5.8-1.2,8.6,5.9-7.7,12.6-15.3,19.9-22.8,36.8-37.5,67-59.5,90.8-66Z"></path><path class="cls-1" d="m1215.1,475.9c-.8.8-12.9,14.6-36.2,41.4-8.3,9.5-20.3,22.3-35.9,38.6-21.9,22.7-38.2,38.2-49.1,46.5-59,45.6-112.5,67.8-160.4,66.9-20.1-.5-36.3-5.7-48.6-15.8-11.5-9.6-17.2-21.5-17.2-35.7,0-7.2,1.6-14.4,4.8-21.6,2.4-5.4,4.7-8.2,6.9-8.2.3,0,.5.1.7.2.2.5-.6,2.6-2.4,6.3-3.7,7.5-5.5,14.9-5.5,22.3,0,13.4,5.5,24.7,16.4,34s25.5,14.1,43.7,14.6c24.3.6,49.5-5.2,75.7-17.5,21.7-10.2,46.4-26.3,74-48.1,19.8-15.7,48.1-43.6,84.8-83.8l-.5-.5c-21.7,20.3-36.5,30.4-44.3,30.4-5.6,0-8.4-2.7-8.4-8.1,0-9.7,6.1-20.9,18.2-33.3,8.2-8.3,17.9-15.5,29.5-21.7,11.5-6.1,20.7-9.2,27.6-9.2,4.8,0,7.2,1.7,7.2,5s-2.2,7.5-6.7,12.6l.7.5c7.7-7.6,12.4-12.1,14.4-13.4,2.7-1.9,6.3-2.8,10.6-2.4m-26.1.9c-7.5,0-22.9,11.1-46.2,33.2-14.9,14.2-22.3,24.1-22.3,29.5,0,1.3.6,2.1,1.7,2.6,2.2.9,8-1.9,17.3-8.6,9.3-6.7,19.1-15.1,29.3-25.1,15.5-15.3,23.2-25,23.2-29.2.1-1.6-1-2.4-3-2.4Z"></path><path class="cls-1" d="m1275.1,482.1c-.2,1.5-.7,2.6-1.5,3.5s-1.5,1.2-2.2,1.1c-.5-.5-1.4-1.1-2.9-1.9-2.1-1.1-4.1-1.8-6.2-1.9-9.1-.5-24.6,9.7-46.4,30.4-9.3,8.7-19.4,20.1-30.4,34-1.3,0-2.2-1.3-2.6-3.8-.3-2.3-.2-4.2.5-5.5,5.9-11.3,16.2-24.6,30.9-39.8,8.4-8.7,15.7-15.1,21.7-19.1,4.2-2.7,9.8-4.1,16.8-4.1-11.7,7.6-22.9,17.7-33.8,30.3l.7.9c25.4-22.3,42-32.6,49.8-31.2,4.1.6,5.9,3,5.6,7.1"></path><path class="cls-1" d="m1305.9,474.7c-22.2,20-38.8,36.5-49.8,49.6-6.4,7.6-9.6,12.9-9.6,15.8,0,1.6.9,2.4,2.7,2.4,4.3,0,11.5-3.7,21.5-11.3,8.8-6.5,17.1-13.4,25.1-20.6,1.6-1.1,2.7-1.3,3.4-.7.8.8.5,1.7-.9,2.6-6.4,6.3-14.9,13.4-25.4,21.2-11,8.1-19.5,12.1-25.6,12.1s-9.1-2.4-9.1-7.4c0-7.6,5.9-17.6,17.7-29.9,15.3-16.1,27.6-26.6,36.9-31.6,3.6-1.7,8-2.6,13.1-2.2m18.4-20c0,4.5-2.2,6.8-6.7,6.8s-6.7-2.3-6.7-6.8,2.2-6.8,6.7-6.8c4.5.1,6.7,2.3,6.7,6.8Z"></path><path class="cls-1" d="m1353.6,488c-2.2,4.8-5.4,8.9-9.6,12.3-2.7,2.2-5,3.4-7,3.4-2.1,0-3.1-1-3.1-2.9,0-2.4,2.7-5.2,8.2-8.6,7-4.3,10.5-8.4,10.5-12.2,0-2.1-.9-3.1-2.6-3.1-5.3,0-18,9.7-38.3,29-15.2,14.5-22.7,25.3-22.7,32.3,0,3,1.8,4.5,5.3,4.5,5.8,0,13.5-3.2,23.2-9.8,7.3-5,16.9-12.6,28.7-23,1.1-1.1,2.1-1.3,2.9-.5,1,.6.8,1.4-.5,2.4-6.7,6.7-15.1,13.7-25.1,21-10.9,7.8-20.5,12.1-28.8,13.1-4.6.5-8.2-.4-10.8-2.5-2.6-2.2-3.8-5.2-3.8-9,.1-10.4,6.9-21.8,20.3-34.3,8-7.3,16.7-13.6,26.1-18.8,9.4-5.2,16.9-7.8,22.3-7.8,4.6,0,6.9,2.1,6.9,6.3.1,2.2-.6,5-2.1,8.2"></path><path class="cls-1" d="m1413.9,480c0,8.3-7.2,19.8-21.5,34.5-20.8,20.9-36.4,31.3-46.9,31.3-6.9,0-10.3-3.7-10.3-11,0-10.1,6.2-21.4,18.7-34,8-8.1,17-14.8,27.1-20.1,9.6-5.1,17.6-7.6,24.2-7.6,5.7,0,8.7,2.3,8.7,6.9m-6.7-3.4c-8.1,0-23,11.2-44.5,33.5-13.7,14.2-20.6,23.9-20.6,29,0,2.6,1.3,3.8,3.9,3.8,6.7,0,21.3-11.4,43.8-34.3,13.7-14,20.6-23.9,20.6-29.4-.1-1.7-1.2-2.6-3.2-2.6Z"></path><path class="cls-1" d="m1694.8,400.9c-1.8,9.4-6.2,16-13.2,19.7-1.4.8-2.3.8-2.6,0-.2-.5.3-1.2,1.5-2.2,4.9-4.5,7.9-9.6,8.8-15.3.5-2.4.7-4.7.7-6.9,0-10.8-4.4-19.5-12.9-26.1-9.6-7.3-23.3-11-40.9-11-29.9,0-66.2,16.9-109,50.8-22.9,18.1-53.4,46.8-91.7,86.2-22.9,23.5-34.2,38-34.2,43.6,0,1.6,1,2.4,3.1,2.4,3,0,9.1-3.2,18.2-9.6,3-2.3,11.9-9.5,26.6-21.8,1.4-1.3,2.5-1.5,3.4-.7.8.8.4,1.7-1,2.6-7.7,7.7-17.1,15.4-28.3,23.3-10.1,7-17.4,10.5-22,10.5-5.6,0-8.4-2.8-8.4-8.4,0-3.8,1.6-8.3,4.8-13.4,5.6-8.7,16.1-21.1,31.6-37.1,18.2-18.8,30.5-31.2,36.8-37.1,19.7-18.8,38.6-34.9,57-48.1,43.8-31.5,81.9-47.2,114.5-47.2,19.3,0,34.2,4.1,44.5,12.2,8.9,7.2,13.4,16.2,13.4,27.1,0,2-.3,4.3-.7,6.5"></path><path class="cls-1" d="m1510.3,479.1c0,4.8-4.1,10.2-12.5,16.1-3.2,2.2-7.5,4.4-13.1,6.3-5.5,1.9-9.9,2.9-13.3,2.9-1.8,0-3.1-.2-3.8-.7-16.8,15.8-25.1,27.4-25.1,34.7,0,2.8,1.8,4.3,5.2,4.3,5.3,0,12.3-2.7,20.8-8.1,9.4-5.9,19.6-14,30.4-24.2,1.6-1.4,2.7-1.8,3.3-1,.6.8.2,1.9-1.2,3.3-9.3,8.4-18.4,15.8-27.5,22.2-11.7,8.1-21.4,11.8-29.2,10.9-7.8-.8-11.4-5.1-10.8-12.9,1-9.7,7.2-20.1,18.7-31.1,8-7.6,17-14.4,27.2-20.1,10.1-5.7,18-8.6,23.6-8.6,4.9,0,7.3,2,7.3,6m-4.6-2.7c-1.4-1.1-6.4,1.4-15.1,7.7-8,5.9-15.2,12-21.6,18.2.5.2,1.1.3,1.9.3,6.6,0,14.6-3.8,24.2-11.3,7.3-5.9,11-10.4,11-13.4.1-.8-.1-1.2-.4-1.5Z"></path><path class="cls-1" d="m103.9,0c14.5-.1,27.6.8,39.8,2.5v47.4h-.3c-6.1-1.9-13.1-2.3-20.1-3.4-13.8-2.3-27.2,2.2-35.8,6-28.5,12.3-48.1,52.3-38.5,96.2,9,41,41.3,90.6,97.3,71.2-.1,15.3-.2,30.5-.3,45.8-18.9,1.4-41.1,4.4-59-.9-43.3-13-67-44.5-80-87.9-2.9-9.8-3.5-19.5-5.3-30.7-2.5-14.7-2.1-34.6.6-49,2.9-15.5,6.4-29.1,11.9-41.7C25,31,46.2,13.5,73.2,5c6.6-1.4,13.2-2.7,19.8-4.1,3.6-.2,7.2-.6,10.9-.9"></path><path class="cls-1" d="m963.8,0c15-.1,29.4-.1,41.7,2.5-.1,15.8-.2,31.6-.3,47.4-7-2.4-19-4.6-27.6-3.4-11.9,1.7-20.1,1.8-28.8,5.6-24.5,10.7-46.3,47.7-39.5,87.2,1.5,7.4,2.9,14.9,4.4,22.3,10.4,33.3,29.1,55.6,67.1,61.8,10.3,1.7,19.4-2.2,27.3-3.5v45.5c-81.3,12.4-120.9-27.9-139-87.8-10.2-33.5-8.8-85.6,3.8-115.4,11.4-27,30.5-47.3,59.6-56.5,6.4-1.4,12.7-2.9,19.1-4.4,4-.5,8.1-.9,12.2-1.3"></path><path class="cls-1" d="m1023.4,37.7c3.8.4,7.5.8,11.3,1.2v40.5c-12.6-2-29.4-5.6-44.2-2.5-30.5,6.4-46,24.3-52.1,55.2-1.3,6.6-2.2,16.5-.9,24.2,1.8,10.7,4.9,19.9,6.9,29.2h-.3v-.6c-15.6-13.5-21.5-58.8-11.6-82.8,13.2-32.2,49.2-45.9,91-31.4-.1-11.1-.1-22.1-.1-33"></path><path class="cls-1" d="m161.9,38c3.8.3,7.5.7,11.3.9v40.5c-12.4-1-27-5.6-41.7-2.8-31.3,5.9-47.6,22.8-54.3,53.3-1.7,8-2.6,20.6-.9,29.8,1.7,9.3,4.1,17.6,6.6,25.7-4.9-4.3-7.7-12.4-10.3-18.8-13.6-33.1-6-72.3,16.9-89.7,11.3-8.6,31.6-15.1,52.4-11,6.7,1.6,13.4,3.1,20.1,4.7-.1-10.9-.1-21.8-.1-32.6"></path><path class="cls-1" d="m1071.1,77.5c11.5,1.9,23,3.8,34.5,5.7v.3c-3.8,21.9-7.5,43.7-11.3,65.6,20.1,0,41.7,2.2,61.4-.3v-1.6c-2.5-15-5-29.9-7.5-44.9-1.1-5.3-4.4-14.1-3.2-19.4,11.4-1.8,22.8-3.6,34.2-5.4,4.1,35.5,9.2,71.4,16,105.4,3.1,18.1,6.3,36.2,9.4,54.3-.1.2-.2.4-.3.6-11.5,1.8-23,3.5-34.5,5.3-3.6-24.4-7.1-48.9-10.7-73.4-20.7-1.4-47.7-3.8-68.1,0-1.7,11.1-3.3,22.2-5,33.3-1.9,13.4-3.8,26.8-5.7,40.1h-.3c-11.5-1.8-23-3.7-34.5-5.6v-.3c6.9-35.3,11-72.3,18.2-108.2,2.6-17.2,5-34.4,7.4-51.5"></path><path class="cls-1" d="m587,80.6v20.1c-11.5-.8-36.9-3.3-47.7-.3-.4,46.8.3,95.9.3,142.4h-35.1c0-46.7.5-95.7.3-142.7-15.5-.5-32.2-.1-47,.6.1-6.7.2-13.4.3-20.1,43,0,86,0,128.9,0"></path><path class="cls-1" d="m194.3,80.9h35.1c0,47.2-.4,96.5-.3,144,22.4.1,43.3-1.2,63.4-3.2v21.3h-98.2c.3-14.9.6-29.9.9-44.8v-33.6c-.3-27.8-.6-55.7-.9-83.7"></path><path class="cls-1" d="m332.3,80.9h93.5v21c-19.2-.1-38.3-3.1-58.7-3.1-.2,16.4-.4,32.8-.6,49.2,14.4.7,41.3,2.8,54.3-.6l.6.3v21.7c-14.2-1-40.9-4.3-54.9-.7.2,18.8.4,37.5.6,56.2,13.8-.5,27.6-1.1,41.4-1.6,5.8-.4,11.5-.8,17.3-1.3v21h-93.8c.3-16.6.6-33.2.9-49.9.1-11,.2-22,.3-33-.3-26.2-.6-52.7-.9-79.2"></path><path class="cls-1" d="m1256.5,80.9h35.1c-.3,19.7-.6,39.3-.9,59,.3,34.3.6,68.6.9,102.9h-35.1c.2-52.8.2-109.1,0-161.9"></path><path class="cls-1" d="m1716.7,80.9h35.1c0,47.5-.3,96.3-.3,144,22.4.1,43.3-1.2,63.4-3.2v21.3h-98.2c.2-52.8.3-109.2,0-162.1"></path><path class="cls-1" d="m1855.1,80.9h35.1c-.7,52.7-.7,109.1,0,161.9h-35.1c.3-20.4.6-40.8.9-61.2-.3-33.5-.6-67.1-.9-100.7"></path><path class="cls-1" d="m1474.8,96.6h1.9c4.5,14.3,9,28.7,13.5,43,8.9,28.4,18.5,55.6,29.2,82.5,6.8,16.3,13.6,32.6,20.4,48.9-20.6-.1-41.2-.2-61.8-.3-1.3-3.4-2.5-6.7-3.8-10.1h48.6v-.3c-9.9-25.6-20.2-52-30.5-78.4-8.9-28.1-17.8-56.3-26.6-84.4v-.3c3.1-.1,6.1-.3,9.1-.6"></path><path class="cls-1" d="m1210.7,97.5h1.3c5.8,38.4,11.7,76.8,17.6,115.2,2.9,16.9,5.8,33.9,8.8,50.8-12.5,1.9-25.1,3.8-37.7,5.6-3.1.6-12.2,2.7-14.1,1.3-.6-3.4-1.3-6.9-1.9-10.3h.6c13.4-2.1,26.8-4.2,40.2-6.3v-1.3c-3.3-19.4-6.7-38.9-10.1-58.3-4.9-31.7-9.8-63.4-14.7-95.1h.6c3.1-.5,6.2-1,9.4-1.6"></path><path class="cls-1" d="m247.6,99.5h11.6c-.3,36.5-.7,73-.9,109.5h-11c0-36.3,0-73.5.3-109.5"></path><path class="cls-1" d="m1908.1,99.5h11.9c-.1,56.3-.2,115.3,0,171.6h-41.4v-10.3h30.1c0-52.9-.6-107.8-.6-161.3"></path><path class="cls-1" d="m1624.5,172.2c15.1-5.1,25.6-11.2,32.9-23.8,12.2-21,3.9-46.5-11-57.4-24.3-17.8-69.2-12.3-105.8-8.8.3,31.7.6,63.3.9,95-.3,21.9-.6,43.7-.9,65.6h35.2c-.3-22.2-.6-44.3-1-66.5h22.9c4.8,17.3,11.7,35.5,20.1,49.9,3.5,5.7,7.1,11.3,10.7,16.9h44.6v-.3c-16.8-22.4-37.5-42.6-48.6-70.6m-49.6-15c.1-18.5.2-37,.3-55.5,27.7-8.5,60.7,3.5,52.1,34.8-5.6,20.3-25.9,21.1-52.4,20.7Z"></path><path class="cls-1" d="m1309.8,100.4h11.6v170.7h-42.6c.1-3.5.2-6.9.3-10.3h31.4c-.2-52.8-.7-107.1-.7-160.4"></path><path class="cls-1" d="m1770.1,100.4h11.6c-.3,36.4-.6,72.8-.9,109.2-3.7-.1-7.3-.2-11-.4,0-36.2.2-72.5.3-108.8"></path><path class="cls-1" d="m1120.7,104.5c3.3,1.8,6.7,3.6,10,5.3-.9,8.6-1.8,17.1-2.8,25.7h-11.9v-.9c1.5-10,3.1-20.1,4.7-30.1"></path><path class="cls-1" d="m1483.6,208.6c-11-26.8-19.2-55-28.2-83.8-4.6-15.5-9.2-30.9-13.8-46.4h-1.9c-14.3,1.6-28.7,3.1-43,4.7-6.4,18.6-12.7,37.2-19.1,55.8-13.6,35-26.9,69.8-41.4,103.9v.3h30.4c4.7-13.8,9.4-27.6,14.1-41.4h62.4c4.9,13.7,9.8,27.4,14.7,41.1h40.5c-4.9-11.4-9.8-22.8-14.7-34.2m-96.9-26.3c8.6-25.3,17.2-50.6,25.7-75.9,1.8-.3,3.6-.6,5.4-.9h1.3c6.2,25.6,12.3,51.2,18.5,76.9-17-.1-34-.1-50.9-.1Z"></path><path class="cls-1" d="m479.1,115.4c4.2.1,8.4.2,12.5.3-.1,5-.2,10-.3,15.1-4.1.1-8.2.2-12.3.3.1-5.2.1-10.4.1-15.7"></path><path class="cls-1" d="m1612.5,129.2c-2.6-.2-5.2-.4-7.8-.6-.1,4.5-.2,9-.3,13.5h-11.3c-.1-7.9-1.3-18.3.6-25.1,10-.6,18.3,2.8,18.8,12.2"></path><path class="cls-1" d="m455.9,118v11.9c-19.1-.1-38.3-2.7-58.6-2.8-.1,2.9-.2,5.9-.3,8.8h-11.6c.1-6,.2-11.9.3-17.9,23.4,0,46.8,0,70.2,0"></path><path class="cls-1" d="m557.9,118h28.5v.3c-.9,3.2-1.9,6.5-2.8,9.7-5.6-.1-10.2.5-14.4,1.6,0,47.2.3,94.6.3,141.5h-44.2c.1-3.5.2-6.9.3-10.3h33c-.3-19.1-.6-38.1-.9-57.1-.1-9.7-.2-19.4-.3-29.1,0-19,.2-37.8.5-56.6"></path><path class="cls-1" d="m672.1,120.8c11.5-.3,18.1,4,22,11.3-3.7-1.1-7.5-4-13.2-2.8-23.3,4.9-24.8,49.4-18.8,74.4-17-9.9-17.9-53.9-6.9-71.8,4.1-6.9,9-7.7,16.9-11.1"></path><path class="cls-1" d="m1681.6,129.6c5.2,5.2,7.6,19.5,5.3,29.8-3.5,16.2-14.9,32-30.8,35.5-2.5-3.6-5-7.1-7.5-10.6,20.5-8.3,33.4-26.8,33-54.7"></path><path class="cls-1" d="m765.2,140.9c.1.2.2.4.3.6-.1-.2-.2-.4-.3-.6"></path><path class="cls-1" d="m765.5,141.5c5.1,6.6,6.2,17.7,8.2,27.3,10,49.6-15.4,85.7-50.2,97.3-13.7,4.6-45.6,5-56.5-2.8,62.1,6.7,93-31.1,101.6-82.2,2.5-14.3-1.7-28.1-3.1-39.6"></path><path class="cls-1" d="m1415.9,149.6c1.9,7,3.7,14,5.7,21h-13.5c2.5-6.9,5.1-14,7.8-21"></path><path class="cls-1" d="m441.5,164.7h9.4c.1,10.9.2,21.8.3,32.6-15.1-4-39.4-.6-54.9,0,.1,3.9.2,7.7.3,11.6h-11.3c-.1-7.9-.2-15.9-.3-23.8,18.1-.1,37.4,1.1,54.9,1.5.5-1.1.4-.8,1.6-1.2v-20.7"></path><path class="cls-1" d="m1144.8,186.7c.4,3.6.8,7.1,1.2,10.7-5.9-.1-26-.9-28.5,1.6-4.1,25.5-8.2,51-12.2,76.5-14.5-2.2-28.9-4.4-43.3-6.6.5-3.7,1-7.3,1.6-11h.3c10.7,1.4,21.3,2.7,32,4.1.1-15.3,4.1-31.3,6.9-45.5,1.7-10.1,3.3-20.3,5-30.4,12.4.2,24.7.4,37,.6"></path><path class="cls-1" d="m1605.6,271.1h-39.2v-10.3h27.9c-.2-17.8-.4-35.6-.6-53.3v.6c3.6,8.7,7.1,17.3,10.7,26,.4,12.3.8,24.6,1.2,37"></path><path class="cls-1" d="m1404.9,219.3c8.9.1,17.8.2,26.7.3,1.2,3.4,2.3,6.9,3.4,10.4h-30.7c-4.7,13.8-9.4,27.6-14.1,41.4-13.2-.1-26.4-.2-39.5-.3v-.3c1-3.4,2.1-6.7,3.1-10.1h27.9c4.6-13.7,9.2-27.4,13.8-41.1,3.1-.1,6.2-.2,9.4-.3"></path><path class="cls-1" d="m1834.4,235.9c3,.1,6.1.2,9.1.3v35.1h-107.6v-9.1c32.9-.1,65.7-.2,98.5-.3v-26"></path><path class="cls-1" d="m445.9,238.1h10.3c-.2,11.1-.4,22.2-.6,33.3h-102.6v-9.7h92.9c0-7.9,0-15.8,0-23.6"></path><path class="cls-1" d="m311.9,240h9.1v31.4h-105.7v-9.7c32.2-.1,64.4-.2,96.6-.3v-21.4"></path><path class="cls-1" d="m165.7,260.1c3.7-.6,7.5-1.3,11.3-1.9-.1,12.1-.2,24.3-.3,36.4-7.6.8-15.3,1.7-22.9,2.5-21.7,3.3-48.7-5.4-62.1-11.3-4-1.7-8.7-3.5-11.6-6.6,6.9,1.7,13.8,3.3,20.7,5,18.3,3.8,49.2,2.5,65-2.8-.1-7.1-.1-14.2-.1-21.3"></path><path class="cls-1" d="m1025.3,281.7v-21.6c3.9-.5,7.7-1.1,11.6-1.6-.1,12-.2,24.1-.3,36.1-7.7.8-15.3,1.7-22.9,2.5-21.8,3.4-47.1-4.7-60.9-10.7-4.7-2-10.2-4-13.5-7.5,12.1,3,33.3,9.8,49.9,7.2,5.7-.4,11.5-.9,17.2-1.3,6.3-1,12.6-2.1,18.9-3.1"></path><path class="cls-1" d="m1644.6,261h32.9c3.1,0,10.1-1,11.9.6,2.8,3.2,5.7,6.5,8.5,9.7h-46.4c-2.3-3.4-4.6-6.8-6.9-10.3"></path><path class="cls-1" d="m749.9,146.2c-7.9-41.4-31.1-70.7-80.7-70-2.4.2-4.8.4-7.2.6-5.4,1.3-10.9,2.5-16.3,3.8-23.3,9-38.4,26.2-46.1,50.8-15.4,49.1,9.8,94.5,43,108.9,8.8,3.8,22.3,9,36.4,6.6,34-5.7,54.4-20.9,65.6-48.9,5.2-13.4,8.7-34,5.3-51.8m-36.1,41.7c-5.9,19.2-16.7,30.7-38.9,33.9-35,5.1-51.6-45.5-43.6-80.9,3.8-16.6,11.4-30.3,25.7-36.4,3.7-.9,7.5-1.9,11.3-2.8,11.8-.1,20,1.4,27,5.9,19.1,12.6,27.7,50.3,18.5,80.3Z"></path></svg>