<svg xmlns="http://www.w3.org/2000/svg" xmlns:xlink="http://www.w3.org/1999/xlink" id="Livello_1" x="0px" y="0px" viewBox="0 0 1920 669.3" style="enable-background:new 0 0 1920 669.3;" xml:space="preserve"><style type="text/css">	.st0{fill:#FFFFFF;}</style><path class="st0" d="M717.2,415.5c-3.7,0.9-8.6,1-14.6,0.2c-14.2-1.8-31.5-4.6-52-8.6c-14.9,13.3-40.5,39.2-76.9,77.7 c-50.8,53.9-97.6,79.8-140.6,77.9c-22.5-1-33.8-11.5-33.8-31.7c0-13.1,5.1-26.8,15.3-41c-6.6-4.5-9.7-12.7-9.6-24.5 c0.1-21.1,10.6-39.1,31.4-53.9c25.6-18.4,62-26.8,109.4-25.2c28.6,0.9,63.1,5.8,103.7,14.4c7.2-5.7,14.8-9.7,22.8-11.9 c0.9-0.3,1.9-0.5,2.7-0.7c0.9-0.1,1.6-0.2,2-0.2c0.6,0.1,0.9,0.5,0.7,0.9c-0.3,0.6-1.7,1.4-4.1,2.1c-6.5,2-12.6,5.7-18.2,10.9 c17.9,4.5,33.9,7.9,47.9,10.1c6.1,0.9,10.5,1.3,13.2,0.9h4.1C721.5,414.3,720.3,415.2,717.2,415.5 M643.7,405.9 c-35.8-6.3-68-9.9-96.7-11c-45.8-1.8-81.3,5.3-106.6,21.1c-21.2,13.4-31.8,29.8-31.6,49.3c0.2,10.4,2.6,17.9,7.4,22.7 c8.9-11.3,19.6-21.2,31.9-29.7c11.2-7.8,23.8-14.1,37.8-18.7c15.5-5.1,29.6-7.3,42.4-6.5c17.1,1.1,25.2,8.7,24.4,22.8 c-0.2,2.4-0.9,3.6-2,3.6c-0.8-0.2-1.2-1.8-1-4.8c0.3-5.3-1.6-9.6-5.7-13.1c-4.1-3.4-9.6-5.2-16.3-5.4c-10.5-0.3-23.3,2.9-38.3,9.6 c-12.1,5.4-23.9,12.2-35.4,20.3c-32.2,23-49.1,43.9-50.7,62.8c-1.6,19.2,8.7,29.1,30.9,29.7c30.2,0.8,72.9-25.2,128.1-78.1 c28.3-27.2,42.7-41,43.4-41.5C620.6,425.2,633.3,414.1,643.7,405.9z"></path><path class="st0" d="M636.2,479.1c0,4.8-4.2,10.2-12.5,16.1c-3.2,2.2-7.5,4.4-13.1,6.3c-5.5,1.9-9.9,2.9-13.3,2.9 c-1.7,0-3-0.2-3.8-0.7c-16.8,15.8-25.2,27.4-25.2,34.7c0,2.8,1.8,4.3,5.3,4.3c5.3,0,12.2-2.7,20.9-8.1c9.4-5.9,19.6-14,30.4-24.2 c1.6-1.4,2.7-1.8,3.4-1c0.6,0.8,0.2,1.9-1.2,3.3c-9.3,8.4-18.4,15.8-27.5,22.2c-11.7,8.1-21.4,11.8-29.2,10.9 c-7.8-0.8-11.4-5.1-10.8-12.9c0.9-9.7,7.2-20.1,18.7-31.1c8-7.6,17-14.4,27.2-20.1c10.1-5.7,18-8.6,23.6-8.6 C633.8,473.1,636.2,475.1,636.2,479.1 M631.6,476.4c-1.4-1.1-6.5,1.4-15.1,7.7c-8,5.9-15.2,12-21.5,18.2c0.5,0.2,1.1,0.3,1.9,0.3 c6.5,0,14.6-3.8,24.2-11.3c7.3-5.9,11-10.4,11-13.4C632.1,477.1,631.9,476.7,631.6,476.4z"></path><path class="st0" d="M707,511c0.8,0.8,0.3,2-1.4,3.6c-11.5,9.8-20.4,17-26.8,21.5c-11.2,7.8-19.6,11-25.4,9.7 c-3.8-0.9-5.7-3.8-5.7-8.6c0-4,1.6-8.3,4.8-12.9c3.8-5.4,10.7-12.6,20.6-21.7c5-4.3,9.9-8.6,14.8-12.9c6.4-5.7,9.6-9.5,9.6-11.2 c0-0.5-0.2-0.8-0.7-1c-2.7-1.1-11.1,2.6-25,11.1c-14,8.5-25,16.7-33.2,24.5c-9.3,8.7-19.4,20.1-30.4,34c-1.3,0-2.2-1.3-2.6-3.9 c-0.3-2.4-0.1-4.2,0.5-5.5c5.9-11.3,16.2-24.6,30.9-40c8.5-8.7,15.8-15.2,22-19.3c3.8-2.6,9.3-3.8,16.5-3.8 c-9.9,6.9-21,17.2-33.3,31.1c8.6-7,18.1-13.8,28.3-20.2c13.1-8,22.3-12.1,27.5-12.1c5.1,0,7.7,2.2,7.7,6.5c0,6.1-7.4,15.8-22.3,29.1 c-5.8,5.1-12.2,11.4-19.2,18.7c-5.8,6.1-8.6,10.2-8.6,12.5c0,1.6,0.8,2.4,2.4,2.4c4.3,0,11-3.2,20.1-9.8 c6.4-5.3,15.1-12.4,26.1-21.3C705.4,510.4,706.4,510.3,707,511"></path><path class="st0" d="M792.4,474.4c-20.6,18.9-36.7,35.5-48.4,49.7c-7,8.6-10.5,13.9-10.5,16c0,0.8,0.4,1.4,1.2,1.7 c3,1.4,10.4-2.5,22-11.7c0.3-0.3,8.1-6.9,23.2-19.9c1.4-0.9,2.5-1.1,3.1-0.4c0.8,0.8,0.6,1.7-0.7,2.7c-5.6,5.4-13.3,12-23,19.7 c-12,9.4-20.3,14.1-24.9,13.9c-5.8-0.3-8.6-2.9-8.6-7.9c0-3.7,1.5-8,4.6-13.2c-2.1,2.1-4.9,4.5-8.4,7.2c-12,9.3-20.6,13.9-25.9,13.9 c-5.4,0-8.1-2.3-8.1-6.9c0-8,6-18.3,18-30.9c12-12.6,24.1-22.4,36.4-29.5c4.1-2.4,9.1-3.3,14.9-2.9c-22.8,18.7-39.8,34.8-50.8,48.4 c-6.9,8.5-10.3,13.8-10.3,15.8c0,0.9,0.4,1.6,1.2,1.9c3.3,1.6,11-2.3,23-11.9c5.6-4.4,13.2-11.6,22.8-21.5 c15.2-15.8,27.3-26.3,36.4-31.5C782.9,474.7,787.2,473.9,792.4,474.4"></path><path class="st0" d="M1037.6,429c-1.8,9.6-6.2,16.1-13.2,19.6c-1.6,0.8-2.5,0.8-2.7,0c-0.2-0.5,0.3-1.2,1.4-2.1 c4.5-3.7,7.3-8.9,8.6-15.5c0.5-2.8,0.7-5.5,0.7-8.1c0-10.6-4-18.8-12-24.9c-8.9-6.9-22.4-10.2-40.2-10.1 c-29.9,0.4-66.3,17.5-109.2,51.5c-16,12.6-31.5,26.2-46.7,40.7h18.4c1.3,0,1.7,0.5,1.2,1.7c-0.3,0.8-1.2,1.2-2.7,1.2 c-8.1,0-15,0.2-20.6,0.7c-31,31-46.5,49.6-46.5,55.8c0,2.2,1.3,3.3,3.8,3.3c4.5,0,11.3-3.5,20.6-10.5c8.8-6.7,17.3-13.9,25.6-21.8 c1.6-1.1,2.7-1.4,3.4-0.7c0.5,0.6-0.1,1.9-1.7,3.8c-8.9,8.3-17.8,15.7-26.6,22.2c-9.8,7.3-17.4,11-23,11c-6.7,0-10.1-3.3-10.1-9.8 c0-6.4,5.5-15.9,16.5-28.7c3.5-4.1,11.3-12.4,23.4-24.7c-2.9,0-7.8,0.3-14.6,1c-1,0.2-1.6,0.1-1.8-0.1c-0.3-0.2-0.3-0.6-0.1-1.1 c0.1-0.5,0.9-1,2.2-1.4c3.7-0.6,9.6-1.1,17.7-1.4c18.8-18.8,37.7-35.1,56.5-48.8c43-31.2,81.1-47,114.5-47.3 c19.5-0.2,34.3,3.7,44.3,11.4c8.8,6.7,13.2,15.4,13.2,26.3C1038.3,424.4,1038,426.8,1037.6,429"></path><path class="st0" d="M885.5,479.1c0,4.8-4.2,10.2-12.5,16.1c-3.2,2.2-7.5,4.4-13.1,6.3c-5.5,1.9-9.9,2.9-13.3,2.9 c-1.8,0-3-0.2-3.8-0.7c-16.8,15.8-25.1,27.4-25.1,34.7c0,2.8,1.8,4.3,5.3,4.3c5.3,0,12.2-2.7,20.8-8.1c9.4-5.9,19.6-14,30.4-24.2 c1.6-1.4,2.7-1.8,3.3-1c0.6,0.8,0.2,1.9-1.2,3.3c-9.3,8.4-18.4,15.8-27.5,22.2c-11.7,8.1-21.4,11.8-29.2,10.9 c-7.8-0.8-11.4-5.1-10.8-12.9c1-9.7,7.2-20.1,18.7-31.1c8-7.6,17-14.4,27.2-20.1c10.1-5.7,18-8.6,23.6-8.6 C883.1,473.1,885.5,475.1,885.5,479.1 M880.9,476.4c-1.4-1.1-6.5,1.4-15.1,7.7c-8,5.9-15.1,12-21.5,18.2c0.5,0.2,1.1,0.3,1.9,0.3 c6.6,0,14.6-3.8,24.2-11.3c7.4-5.9,11-10.4,11-13.4C881.4,477.1,881.2,476.7,880.9,476.4z"></path><path class="st0" d="M1238.7,407.6c-0.5,1-1.4,1.2-2.7,0.7c-3.7-1.3-7.2-1.8-10.8-1.4c-10.7,1.1-27,11.1-48.9,29.9 c-17.3,14.6-33.1,30.1-47.6,46.7c-14.1,16-26,32-35.7,48.1c-2.4,4.1-4.9,8.3-7.5,12.4c-2.7,4.1-4.8,6-6.4,5.5 c-1.7-0.5-2.6-1.9-2.6-4.3c0-2.7,1.1-6.4,3.3-11c3.4-7,9.7-17.1,19.2-30.2c3-6.2,4.5-12.1,4.5-17.5c0-5.1-1.4-9.8-4.1-14.1 c-2.5,2.4-6.3,6-11.2,10.8c-54,53.8-100.8,80.8-140.6,80.8c-24.4,0-36.6-10-36.6-29.7c0-12.9,5.4-26.2,16.3-39.8 c9.1-11.5,20.1-21.2,33-29c17.9-11.1,39.4-17.9,64.6-20.6c-4.9-3.5-7-8.6-6.2-15.4c1.6-14.7,11.9-26.4,30.9-35.2 c16.9-7.8,36.5-11.7,58.7-11.7c20.6,0,40.4,1.8,59.6,5.3c9.9,1.8,24.7,5.3,44.5,10.6c3.8,1,11.6,3.4,23.2,7.2 C1237.7,406.3,1238.7,407,1238.7,407.6 M1094.2,465.8c-12.9-12.4-32.4-18.2-58.4-17.2c-9.8,0.3-21.4,2.8-35,7.4 c-13.6,4.6-25.3,10.1-35.2,16.3c-33.7,21.2-50.5,42.1-50.5,62.5c0,17.6,10.4,26.4,31.4,26.4c16.8,0,35.8-6.8,57-20.4 c18.5-11.8,42.4-31.3,71.6-58.4C1081.6,476.2,1088,470.8,1094.2,465.8z M1222.1,403.6c-2-0.5-5-1.1-9.1-1.9 c-19.5-3.7-33.6-6-42.4-7.2c-18.1-2.2-38.9-3.3-62.5-3.3c-21.4,0-40.5,3.5-57.2,10.5c-18.1,7.7-27.7,17.4-29,29.3 c-0.6,6.2,1.7,10.8,7,13.6c2.8-0.3,5.1-0.5,6.7-0.5c27.6-0.5,48,6.1,61.1,19.6c28.6-23.3,56.4-40,83.6-50 C1196.9,407.5,1210.8,404.2,1222.1,403.6z M1216.4,406.7c-8.3,0.6-18.9,3.6-31.8,8.8c-26.7,10.7-54.2,29-82.7,54.9 c3.4,5.3,5,10.8,5,16.5c0,2.9-0.4,5.8-1.2,8.6c5.9-7.7,12.6-15.3,19.9-22.8C1162.4,435.2,1192.6,413.2,1216.4,406.7z"></path><path class="st0" d="M1215.1,475.9c-0.8,0.8-12.9,14.6-36.2,41.4c-8.3,9.5-20.3,22.3-35.9,38.6c-21.9,22.7-38.2,38.2-49.1,46.5 c-59,45.6-112.5,67.8-160.4,66.9c-20.1-0.5-36.3-5.7-48.6-15.8c-11.5-9.6-17.2-21.5-17.2-35.7c0-7.2,1.6-14.4,4.8-21.6 c2.4-5.4,4.7-8.2,6.9-8.2c0.3,0,0.5,0.1,0.7,0.2c0.2,0.5-0.6,2.6-2.4,6.3c-3.7,7.5-5.5,14.9-5.5,22.3c0,13.4,5.5,24.7,16.4,34 c10.9,9.3,25.5,14.1,43.7,14.6c24.3,0.6,49.5-5.2,75.7-17.5c21.7-10.2,46.4-26.3,74-48.1c19.8-15.7,48.1-43.6,84.8-83.8l-0.5-0.5 c-21.7,20.3-36.5,30.4-44.3,30.4c-5.6,0-8.4-2.7-8.4-8.1c0-9.7,6.1-20.9,18.2-33.3c8.2-8.3,17.9-15.5,29.5-21.7 c11.5-6.1,20.7-9.2,27.6-9.2c4.8,0,7.2,1.7,7.2,5c0,3.3-2.2,7.5-6.7,12.6l0.7,0.5c7.7-7.6,12.4-12.1,14.4-13.4 C1207.2,476.4,1210.8,475.5,1215.1,475.9 M1189,476.8c-7.5,0-22.9,11.1-46.2,33.2c-14.9,14.2-22.3,24.1-22.3,29.5 c0,1.3,0.6,2.1,1.7,2.6c2.2,0.9,8-1.9,17.3-8.6c9.3-6.7,19.1-15.1,29.3-25.1c15.5-15.3,23.2-25,23.2-29.2 C1192.1,477.6,1191,476.8,1189,476.8z"></path><path class="st0" d="M1275.1,482.1c-0.2,1.5-0.7,2.6-1.5,3.5c-0.8,0.9-1.5,1.2-2.2,1.1c-0.5-0.5-1.4-1.1-2.9-1.9 c-2.1-1.1-4.1-1.8-6.2-1.9c-9.1-0.5-24.6,9.7-46.4,30.4c-9.3,8.7-19.4,20.1-30.4,34c-1.3,0-2.2-1.3-2.6-3.8 c-0.3-2.3-0.2-4.2,0.5-5.5c5.9-11.3,16.2-24.6,30.9-39.8c8.4-8.7,15.7-15.1,21.7-19.1c4.2-2.7,9.8-4.1,16.8-4.1 c-11.7,7.6-22.9,17.7-33.8,30.3l0.7,0.9c25.4-22.3,42-32.6,49.8-31.2C1273.6,475.6,1275.4,478,1275.1,482.1"></path><path class="st0" d="M1305.9,474.7c-22.2,20-38.8,36.5-49.8,49.6c-6.4,7.6-9.6,12.9-9.6,15.8c0,1.6,0.9,2.4,2.7,2.4 c4.3,0,11.5-3.7,21.5-11.3c8.8-6.5,17.1-13.4,25.1-20.6c1.6-1.1,2.7-1.3,3.4-0.7c0.8,0.8,0.5,1.7-0.9,2.6 c-6.4,6.3-14.9,13.4-25.4,21.2c-11,8.1-19.5,12.1-25.6,12.1c-6,0-9.1-2.4-9.1-7.4c0-7.6,5.9-17.6,17.7-29.9 c15.3-16.1,27.6-26.6,36.9-31.6C1296.4,475.2,1300.8,474.3,1305.9,474.7 M1324.3,454.7c0,4.5-2.2,6.8-6.7,6.8 c-4.5,0-6.7-2.3-6.7-6.8c0-4.5,2.2-6.8,6.7-6.8C1322.1,448,1324.3,450.2,1324.3,454.7z"></path><path class="st0" d="M1353.6,488c-2.2,4.8-5.4,8.9-9.6,12.3c-2.7,2.2-5,3.4-7,3.4c-2.1,0-3.1-1-3.1-2.9c0-2.4,2.7-5.2,8.2-8.6 c7-4.3,10.5-8.4,10.5-12.2c0-2.1-0.9-3.1-2.6-3.1c-5.3,0-18,9.7-38.3,29c-15.2,14.5-22.7,25.3-22.7,32.3c0,3,1.8,4.5,5.3,4.5 c5.8,0,13.5-3.2,23.2-9.8c7.3-5,16.9-12.6,28.7-23c1.1-1.1,2.1-1.3,2.9-0.5c1,0.6,0.8,1.4-0.5,2.4c-6.7,6.7-15.1,13.7-25.1,21 c-10.9,7.8-20.5,12.1-28.8,13.1c-4.6,0.5-8.2-0.4-10.8-2.5c-2.6-2.2-3.8-5.2-3.8-9c0.1-10.4,6.9-21.8,20.3-34.3 c8-7.3,16.7-13.6,26.1-18.8c9.4-5.2,16.9-7.8,22.3-7.8c4.6,0,6.9,2.1,6.9,6.3C1355.8,482,1355.1,484.8,1353.6,488"></path><path class="st0" d="M1413.9,480c0,8.3-7.2,19.8-21.5,34.5c-20.8,20.9-36.4,31.3-46.9,31.3c-6.9,0-10.3-3.7-10.3-11 c0-10.1,6.2-21.4,18.7-34c8-8.1,17-14.8,27.1-20.1c9.6-5.1,17.6-7.6,24.2-7.6C1410.9,473.1,1413.9,475.4,1413.9,480 M1407.2,476.6 c-8.1,0-23,11.2-44.5,33.5c-13.7,14.2-20.6,23.9-20.6,29c0,2.6,1.3,3.8,3.9,3.8c6.7,0,21.3-11.4,43.8-34.3 c13.7-14,20.6-23.9,20.6-29.4C1410.3,477.5,1409.2,476.6,1407.2,476.6z"></path><path class="st0" d="M1694.8,400.9c-1.8,9.4-6.2,16-13.2,19.7c-1.4,0.8-2.3,0.8-2.6,0c-0.2-0.5,0.3-1.2,1.5-2.2 c4.9-4.5,7.9-9.6,8.8-15.3c0.5-2.4,0.7-4.7,0.7-6.9c0-10.8-4.4-19.5-12.9-26.1c-9.6-7.3-23.3-11-40.9-11c-29.9,0-66.2,16.9-109,50.8 c-22.9,18.1-53.4,46.8-91.7,86.2c-22.9,23.5-34.2,38-34.2,43.6c0,1.6,1,2.4,3.1,2.4c3,0,9.1-3.2,18.2-9.6c3-2.3,11.9-9.5,26.6-21.8 c1.4-1.3,2.5-1.5,3.4-0.7c0.8,0.8,0.4,1.7-1,2.6c-7.7,7.7-17.1,15.4-28.3,23.3c-10.1,7-17.4,10.5-22,10.5c-5.6,0-8.4-2.8-8.4-8.4 c0-3.8,1.6-8.3,4.8-13.4c5.6-8.7,16.1-21.1,31.6-37.1c18.2-18.8,30.5-31.2,36.8-37.1c19.7-18.8,38.6-34.9,57-48.1 c43.8-31.5,81.9-47.2,114.5-47.2c19.3,0,34.2,4.1,44.5,12.2c8.9,7.2,13.4,16.2,13.4,27.1C1695.5,396.4,1695.2,398.7,1694.8,400.9"></path><path class="st0" d="M1510.3,479.1c0,4.8-4.1,10.2-12.5,16.1c-3.2,2.2-7.5,4.4-13.1,6.3c-5.5,1.9-9.9,2.9-13.3,2.9 c-1.8,0-3.1-0.2-3.8-0.7c-16.8,15.8-25.1,27.4-25.1,34.7c0,2.8,1.8,4.3,5.2,4.3c5.3,0,12.3-2.7,20.8-8.1c9.4-5.9,19.6-14,30.4-24.2 c1.6-1.4,2.7-1.8,3.3-1c0.6,0.8,0.2,1.9-1.2,3.3c-9.3,8.4-18.4,15.8-27.5,22.2c-11.7,8.1-21.4,11.8-29.2,10.9 c-7.8-0.8-11.4-5.1-10.8-12.9c1-9.7,7.2-20.1,18.7-31.1c8-7.6,17-14.4,27.2-20.1c10.1-5.7,18-8.6,23.6-8.6 C1507.9,473.1,1510.3,475.1,1510.3,479.1 M1505.7,476.4c-1.4-1.1-6.4,1.4-15.1,7.7c-8,5.9-15.2,12-21.6,18.2 c0.5,0.2,1.1,0.3,1.9,0.3c6.6,0,14.6-3.8,24.2-11.3c7.3-5.9,11-10.4,11-13.4C1506.2,477.1,1506,476.7,1505.7,476.4z"></path><path class="st0" d="M103.9,0c14.5-0.1,27.6,0.8,39.8,2.5c0,15.8,0,31.6,0,47.4c-0.1,0-0.2,0-0.3,0c-6.1-1.9-13.1-2.3-20.1-3.4 c-13.8-2.3-27.2,2.2-35.8,6C59,64.8,39.4,104.8,49,148.7c9,41,41.3,90.6,97.3,71.2c-0.1,15.3-0.2,30.5-0.3,45.8 c-18.9,1.4-41.1,4.4-59-0.9c-43.3-13-67-44.5-80-87.9c-2.9-9.8-3.5-19.5-5.3-30.7c-2.5-14.7-2.1-34.6,0.6-49 c2.9-15.5,6.4-29.1,11.9-41.7C25,31,46.2,13.5,73.2,5c6.6-1.4,13.2-2.7,19.8-4.1C96.6,0.7,100.2,0.3,103.9,0"></path><path class="st0" d="M963.8,0c15-0.1,29.4-0.1,41.7,2.5c-0.1,15.8-0.2,31.6-0.3,47.4c-7-2.4-19-4.6-27.6-3.4 c-11.9,1.7-20.1,1.8-28.8,5.6c-24.5,10.7-46.3,47.7-39.5,87.2c1.5,7.4,2.9,14.9,4.4,22.3c10.4,33.3,29.1,55.6,67.1,61.8 c10.3,1.7,19.4-2.2,27.3-3.5c0,15.2,0,30.3,0,45.5c-81.3,12.4-120.9-27.9-139-87.8c-10.2-33.5-8.8-85.6,3.8-115.4 c11.4-27,30.5-47.3,59.6-56.5c6.4-1.4,12.7-2.9,19.1-4.4C955.6,0.8,959.7,0.4,963.8,0"></path><path class="st0" d="M1023.4,37.7c3.8,0.4,7.5,0.8,11.3,1.2c0,13.5,0,27,0,40.5c-12.6-2-29.4-5.6-44.2-2.5 c-30.5,6.4-46,24.3-52.1,55.2c-1.3,6.6-2.2,16.5-0.9,24.2c1.8,10.7,4.9,19.9,6.9,29.2c-0.1,0-0.2,0-0.3,0c0-0.2,0-0.4,0-0.6 c-15.6-13.5-21.5-58.8-11.6-82.8c13.2-32.2,49.2-45.9,91-31.4C1023.4,59.6,1023.4,48.6,1023.4,37.7"></path><path class="st0" d="M161.9,38c3.8,0.3,7.5,0.7,11.3,0.9c0,13.5,0,27,0,40.5c-12.4-1-27-5.6-41.7-2.8c-31.3,5.9-47.6,22.8-54.3,53.3 c-1.7,8-2.6,20.6-0.9,29.8c1.7,9.3,4.1,17.6,6.6,25.7c-4.9-4.3-7.7-12.4-10.3-18.8C59,133.5,66.6,94.3,89.5,76.9 c11.3-8.6,31.6-15.1,52.4-11c6.7,1.6,13.4,3.1,20.1,4.7C161.9,59.7,161.9,48.8,161.9,38"></path><path class="st0" d="M1071.1,77.5c11.5,1.9,23,3.8,34.5,5.7c0,0.1,0,0.2,0,0.3c-3.8,21.9-7.5,43.7-11.3,65.6 c20.1,0,41.7,2.2,61.4-0.3c0-0.5,0-1.1,0-1.6c-2.5-15-5-29.9-7.5-44.9c-1.1-5.3-4.4-14.1-3.2-19.4c11.4-1.8,22.8-3.6,34.2-5.4 c4.1,35.5,9.2,71.4,16,105.4c3.1,18.1,6.3,36.2,9.4,54.3c-0.1,0.2-0.2,0.4-0.3,0.6c-11.5,1.8-23,3.5-34.5,5.3 c-3.6-24.4-7.1-48.9-10.7-73.4c-20.7-1.4-47.7-3.8-68.1,0c-1.7,11.1-3.3,22.2-5,33.3c-1.9,13.4-3.8,26.8-5.7,40.1 c-0.1,0-0.2,0-0.3,0c-11.5-1.8-23-3.7-34.5-5.6c0-0.1,0-0.2,0-0.3c6.9-35.3,11-72.3,18.2-108.2 C1066.3,111.8,1068.7,94.6,1071.1,77.5"></path><path class="st0" d="M587,80.6c0,6.7,0,13.4,0,20.1c-11.5-0.8-36.9-3.3-47.7-0.3c-0.4,46.8,0.3,95.9,0.3,142.4 c-11.7,0-23.4,0-35.1,0c0-46.7,0.5-95.7,0.3-142.7c-15.5-0.5-32.2-0.1-47,0.6c0.1-6.7,0.2-13.4,0.3-20.1 C501.1,80.6,544.1,80.6,587,80.6"></path><path class="st0" d="M194.3,80.9c11.7,0,23.4,0,35.1,0c0,47.2-0.4,96.5-0.3,144c22.4,0.1,43.3-1.2,63.4-3.2c0,7.1,0,14.2,0,21.3 c-32.7,0-65.5,0-98.2,0c0.3-14.9,0.6-29.9,0.9-44.8c0-11.2,0-22.4,0-33.6C194.9,136.8,194.6,108.9,194.3,80.9"></path><path class="st0" d="M332.3,80.9c31.2,0,62.3,0,93.5,0c0,7,0,14,0,21c-19.2-0.1-38.3-3.1-58.7-3.1c-0.2,16.4-0.4,32.8-0.6,49.2 c14.4,0.7,41.3,2.8,54.3-0.6c0.2,0.1,0.4,0.2,0.6,0.3c0,7.2,0,14.4,0,21.7c-14.2-1-40.9-4.3-54.9-0.7c0.2,18.8,0.4,37.5,0.6,56.2 c13.8-0.5,27.6-1.1,41.4-1.6c5.8-0.4,11.5-0.8,17.3-1.3c0,7,0,14,0,21c-31.3,0-62.5,0-93.8,0c0.3-16.6,0.6-33.2,0.9-49.9 c0.1-11,0.2-22,0.3-33C332.9,133.9,332.6,107.4,332.3,80.9"></path><path class="st0" d="M1256.5,80.9c11.7,0,23.4,0,35.1,0c-0.3,19.7-0.6,39.3-0.9,59c0.3,34.3,0.6,68.6,0.9,102.9 c-11.7,0-23.4,0-35.1,0C1256.7,190,1256.7,133.7,1256.5,80.9"></path><path class="st0" d="M1716.7,80.9c11.7,0,23.4,0,35.1,0c0,47.5-0.3,96.3-0.3,144c22.4,0.1,43.3-1.2,63.4-3.2c0,7.1,0,14.2,0,21.3 c-32.8,0-65.5,0-98.2,0C1716.9,190.2,1717,133.8,1716.7,80.9"></path><path class="st0" d="M1855.1,80.9c11.7,0,23.4,0,35.1,0c-0.7,52.7-0.7,109.1,0,161.9c-11.7,0-23.4,0-35.1,0 c0.3-20.4,0.6-40.8,0.9-61.2C1855.7,148.1,1855.4,114.5,1855.1,80.9"></path><path class="st0" d="M1474.8,96.6c0.6,0,1.3,0,1.9,0c4.5,14.3,9,28.7,13.5,43c8.9,28.4,18.5,55.6,29.2,82.5 c6.8,16.3,13.6,32.6,20.4,48.9c-20.6-0.1-41.2-0.2-61.8-0.3c-1.3-3.4-2.5-6.7-3.8-10.1c16.2,0,32.4,0,48.6,0c0-0.1,0-0.2,0-0.3 c-9.9-25.6-20.2-52-30.5-78.4c-8.9-28.1-17.8-56.3-26.6-84.4c0-0.1,0-0.2,0-0.3C1468.8,97.1,1471.8,96.9,1474.8,96.6"></path><path class="st0" d="M1210.7,97.5c0.4,0,0.8,0,1.3,0c5.8,38.4,11.7,76.8,17.6,115.2c2.9,16.9,5.8,33.9,8.8,50.8 c-12.5,1.9-25.1,3.8-37.7,5.6c-3.1,0.6-12.2,2.7-14.1,1.3c-0.6-3.4-1.3-6.9-1.9-10.3c0.2,0,0.4,0,0.6,0c13.4-2.1,26.8-4.2,40.2-6.3 c0-0.4,0-0.8,0-1.3c-3.3-19.4-6.7-38.9-10.1-58.3c-4.9-31.7-9.8-63.4-14.7-95.1c0.2,0,0.4,0,0.6,0 C1204.4,98.6,1207.5,98.1,1210.7,97.5"></path><path class="st0" d="M247.6,99.5c3.9,0,7.7,0,11.6,0c-0.3,36.5-0.7,73-0.9,109.5c-3.7,0-7.3,0-11,0 C247.3,172.7,247.3,135.5,247.6,99.5"></path><path class="st0" d="M1908.1,99.5c4,0,8,0,11.9,0c-0.1,56.3-0.2,115.3,0,171.6c-13.8,0-27.6,0-41.4,0c0-3.5,0-6.9,0-10.3 c10.1,0,20.1,0,30.1,0C1908.7,207.9,1908.1,153,1908.1,99.5"></path><path class="st0" d="M1624.5,172.2c15.1-5.1,25.6-11.2,32.9-23.8c12.2-21,3.9-46.5-11-57.4c-24.3-17.8-69.2-12.3-105.8-8.8 c0.3,31.7,0.6,63.3,0.9,95c-0.3,21.9-0.6,43.7-0.9,65.6c11.7,0,23.4,0,35.2,0c-0.3-22.2-0.6-44.3-1-66.5c7.7,0,15.3,0,22.9,0 c4.8,17.3,11.7,35.5,20.1,49.9c3.5,5.7,7.1,11.3,10.7,16.9c14.9,0,29.7,0,44.6,0c0-0.1,0-0.2,0-0.3 C1656.3,220.4,1635.6,200.2,1624.5,172.2 M1574.9,157.2c0.1-18.5,0.2-37,0.3-55.5c27.7-8.5,60.7,3.5,52.1,34.8 C1621.7,156.8,1601.4,157.6,1574.9,157.2z"></path><path class="st0" d="M1309.8,100.4c3.8,0,7.7,0,11.6,0c0,56.2,0,114.5,0,170.7c-14.2,0-28.4,0-42.6,0c0.1-3.5,0.2-6.9,0.3-10.3 c10.4,0,20.9,0,31.4,0C1310.3,208,1309.8,153.7,1309.8,100.4"></path><path class="st0" d="M1770.1,100.4c3.9,0,7.7,0,11.6,0c-0.3,36.4-0.6,72.8-0.9,109.2c-3.7-0.1-7.3-0.2-11-0.4 C1769.8,173,1770,136.7,1770.1,100.4"></path><path class="st0" d="M1120.7,104.5c3.3,1.8,6.7,3.6,10,5.3c-0.9,8.6-1.8,17.1-2.8,25.7c-4,0-8,0-11.9,0c0-0.3,0-0.6,0-0.9 C1117.5,124.6,1119.1,114.5,1120.7,104.5"></path><path class="st0" d="M1483.6,208.6c-11-26.8-19.2-55-28.2-83.8c-4.6-15.5-9.2-30.9-13.8-46.4c-0.6,0-1.3,0-1.9,0 c-14.3,1.6-28.7,3.1-43,4.7c-6.4,18.6-12.7,37.2-19.1,55.8c-13.6,35-26.9,69.8-41.4,103.9c0,0.1,0,0.2,0,0.3c10.1,0,20.2,0,30.4,0 c4.7-13.8,9.4-27.6,14.1-41.4c20.8,0,41.7,0,62.4,0c4.9,13.7,9.8,27.4,14.7,41.1c13.5,0,27,0,40.5,0 C1493.4,231.4,1488.5,220,1483.6,208.6 M1386.7,182.3c8.6-25.3,17.2-50.6,25.7-75.9c1.8-0.3,3.6-0.6,5.4-0.9c0.4,0,0.8,0,1.3,0 c6.2,25.6,12.3,51.2,18.5,76.9C1420.6,182.3,1403.6,182.3,1386.7,182.3z"></path><path class="st0" d="M479.1,115.4c4.2,0.1,8.4,0.2,12.5,0.3c-0.1,5-0.2,10-0.3,15.1c-4.1,0.1-8.2,0.2-12.3,0.3 C479.1,125.9,479.1,120.7,479.1,115.4"></path><path class="st0" d="M1612.5,129.2c-2.6-0.2-5.2-0.4-7.8-0.6c-0.1,4.5-0.2,9-0.3,13.5c-3.7,0-7.5,0-11.3,0 c-0.1-7.9-1.3-18.3,0.6-25.1C1603.7,116.4,1612,119.8,1612.5,129.2"></path><path class="st0" d="M455.9,118c0,4,0,8,0,11.9c-19.1-0.1-38.3-2.7-58.6-2.8c-0.1,2.9-0.2,5.9-0.3,8.8c-3.9,0-7.8,0-11.6,0 c0.1-6,0.2-11.9,0.3-17.9C409.1,118,432.5,118,455.9,118"></path><path class="st0" d="M557.9,118c9.5,0,19,0,28.5,0c0,0.1,0,0.2,0,0.3c-0.9,3.2-1.9,6.5-2.8,9.7c-5.6-0.1-10.2,0.5-14.4,1.6 c0,47.2,0.3,94.6,0.3,141.5c-14.7,0-29.5,0-44.2,0c0.1-3.5,0.2-6.9,0.3-10.3c11,0,22,0,33,0c-0.3-19.1-0.6-38.1-0.9-57.1 c-0.1-9.7-0.2-19.4-0.3-29.1C557.4,155.6,557.6,136.8,557.9,118"></path><path class="st0" d="M672.1,120.8c11.5-0.3,18.1,4,22,11.3c-3.7-1.1-7.5-4-13.2-2.8c-23.3,4.9-24.8,49.4-18.8,74.4 c-17-9.9-17.9-53.9-6.9-71.8C659.3,125,664.2,124.2,672.1,120.8"></path><path class="st0" d="M1681.6,129.6c5.2,5.2,7.6,19.5,5.3,29.8c-3.5,16.2-14.9,32-30.8,35.5c-2.5-3.6-5-7.1-7.5-10.6 C1669.1,176,1682,157.5,1681.6,129.6"></path><path class="st0" d="M765.2,140.9c0.1,0.2,0.2,0.4,0.3,0.6C765.4,141.3,765.3,141.1,765.2,140.9"></path><path class="st0" d="M765.5,141.5c5.1,6.6,6.2,17.7,8.2,27.3c10,49.6-15.4,85.7-50.2,97.3c-13.7,4.6-45.6,5-56.5-2.8 c62.1,6.7,93-31.1,101.6-82.2C771.1,166.8,766.9,153,765.5,141.5"></path><path class="st0" d="M1415.9,149.6c1.9,7,3.7,14,5.7,21c-4.5,0-9,0-13.5,0C1410.6,163.7,1413.2,156.6,1415.9,149.6"></path><path class="st0" d="M441.5,164.7c3.1,0,6.3,0,9.4,0c0.1,10.9,0.2,21.8,0.3,32.6c-15.1-4-39.4-0.6-54.9,0c0.1,3.9,0.2,7.7,0.3,11.6 c-3.8,0-7.5,0-11.3,0c-0.1-7.9-0.2-15.9-0.3-23.8c18.1-0.1,37.4,1.1,54.9,1.5c0.5-1.1,0.4-0.8,1.6-1.2 C441.5,178.5,441.5,171.6,441.5,164.7"></path><path class="st0" d="M1144.8,186.7c0.4,3.6,0.8,7.1,1.2,10.7c-5.9-0.1-26-0.9-28.5,1.6c-4.1,25.5-8.2,51-12.2,76.5 c-14.5-2.2-28.9-4.4-43.3-6.6c0.5-3.7,1-7.3,1.6-11c0.1,0,0.2,0,0.3,0c10.7,1.4,21.3,2.7,32,4.1c0.1-15.3,4.1-31.3,6.9-45.5 c1.7-10.1,3.3-20.3,5-30.4C1120.2,186.3,1132.5,186.5,1144.8,186.7"></path><path class="st0" d="M1605.6,271.1c-13.1,0-26.2,0-39.2,0c0-3.5,0-6.9,0-10.3c9.3,0,18.6,0,27.9,0c-0.2-17.8-0.4-35.6-0.6-53.3 c0,0.2,0,0.4,0,0.6c3.6,8.7,7.1,17.3,10.7,26C1604.8,246.4,1605.2,258.7,1605.6,271.1"></path><path class="st0" d="M1404.9,219.3c8.9,0.1,17.8,0.2,26.7,0.3c1.2,3.4,2.3,6.9,3.4,10.4c-10.2,0-20.5,0-30.7,0 c-4.7,13.8-9.4,27.6-14.1,41.4c-13.2-0.1-26.4-0.2-39.5-0.3c0-0.1,0-0.2,0-0.3c1-3.4,2.1-6.7,3.1-10.1c9.3,0,18.6,0,27.9,0 c4.6-13.7,9.2-27.4,13.8-41.1C1398.6,219.5,1401.7,219.4,1404.9,219.3"></path><path class="st0" d="M1834.4,235.9c3,0.1,6.1,0.2,9.1,0.3c0,11.7,0,23.4,0,35.1c-35.9,0-71.7,0-107.6,0c0-3,0-6.1,0-9.1 c32.9-0.1,65.7-0.2,98.5-0.3C1834.4,253.3,1834.4,244.6,1834.4,235.9"></path><path class="st0" d="M445.9,238.1c3.4,0,6.9,0,10.3,0c-0.2,11.1-0.4,22.2-0.6,33.3c-34.2,0-68.4,0-102.6,0c0-3.3,0-6.5,0-9.7 c31,0,61.9,0,92.9,0C445.9,253.8,445.9,245.9,445.9,238.1"></path><path class="st0" d="M311.9,240c3,0,6.1,0,9.1,0c0,10.4,0,20.9,0,31.4c-35.3,0-70.5,0-105.7,0c0-3.3,0-6.5,0-9.7 c32.2-0.1,64.4-0.2,96.6-0.3C311.9,254.2,311.9,247.1,311.9,240"></path><path class="st0" d="M165.7,260.1c3.7-0.6,7.5-1.3,11.3-1.9c-0.1,12.1-0.2,24.3-0.3,36.4c-7.6,0.8-15.3,1.7-22.9,2.5 c-21.7,3.3-48.7-5.4-62.1-11.3c-4-1.7-8.7-3.5-11.6-6.6c6.9,1.7,13.8,3.3,20.7,5c18.3,3.8,49.2,2.5,65-2.8 C165.7,274.3,165.7,267.2,165.7,260.1"></path><path class="st0" d="M1025.3,281.7c0-7.2,0-14.4,0-21.6c3.9-0.5,7.7-1.1,11.6-1.6c-0.1,12-0.2,24.1-0.3,36.1 c-7.7,0.8-15.3,1.7-22.9,2.5c-21.8,3.4-47.1-4.7-60.9-10.7c-4.7-2-10.2-4-13.5-7.5c12.1,3,33.3,9.8,49.9,7.2 c5.7-0.4,11.5-0.9,17.2-1.3C1012.7,283.8,1019,282.7,1025.3,281.7"></path><path class="st0" d="M1644.6,261c11,0,22,0,32.9,0c3.1,0,10.1-1,11.9,0.6c2.8,3.2,5.7,6.5,8.5,9.7c-15.5,0-30.9,0-46.4,0 C1649.2,267.9,1646.9,264.5,1644.6,261"></path><path class="st0" d="M749.9,146.2c-7.9-41.4-31.1-70.7-80.7-70c-2.4,0.2-4.8,0.4-7.2,0.6c-5.4,1.3-10.9,2.5-16.3,3.8 c-23.3,9-38.4,26.2-46.1,50.8c-15.4,49.1,9.8,94.5,43,108.9c8.8,3.8,22.3,9,36.4,6.6c34-5.7,54.4-20.9,65.6-48.9 C749.8,184.6,753.3,164,749.9,146.2 M713.8,187.9c-5.9,19.2-16.7,30.7-38.9,33.9c-35,5.1-51.6-45.5-43.6-80.9 c3.8-16.6,11.4-30.3,25.7-36.4c3.7-0.9,7.5-1.9,11.3-2.8c11.8-0.1,20,1.4,27,5.9C714.4,120.2,723,157.9,713.8,187.9z"></path></svg>